<mxfile host="app.diagrams.net" modified="2024-03-16T23:05:28.778Z" agent="Mozilla/5.0 (Windows NT 10.0; Win64; x64) AppleWebKit/537.36 (KHTML, like Gecko) Chrome/121.0.0.0 Safari/537.36 OPR/107.0.0.0" etag="hIk-_0V5t3ipDII3-SOi" version="24.0.7" type="device">
  <diagram name="Page-1" id="_r2aUMMjaaTw7n95v9pz">
    <mxGraphModel dx="913" dy="586" grid="1" gridSize="10" guides="1" tooltips="1" connect="1" arrows="1" fold="1" page="1" pageScale="1" pageWidth="850" pageHeight="1100" math="0" shadow="0">
      <root>
        <mxCell id="0" />
        <mxCell id="1" parent="0" />
        <mxCell id="K2ils4JtKWF1EPOJLzAm-1" value="Locação" style="swimlane;fontStyle=1;align=center;verticalAlign=top;childLayout=stackLayout;horizontal=1;startSize=26;horizontalStack=0;resizeParent=1;resizeParentMax=0;resizeLast=0;collapsible=1;marginBottom=0;whiteSpace=wrap;html=1;" parent="1" vertex="1">
          <mxGeometry x="120" y="150" width="160" height="114" as="geometry" />
        </mxCell>
        <mxCell id="K2ils4JtKWF1EPOJLzAm-2" value="+ data_locação&lt;br&gt;+ data_devolução&lt;br&gt;+ data_prevista_devolução" style="text;strokeColor=none;fillColor=none;align=left;verticalAlign=top;spacingLeft=4;spacingRight=4;overflow=hidden;rotatable=0;points=[[0,0.5],[1,0.5]];portConstraint=eastwest;whiteSpace=wrap;html=1;" parent="K2ils4JtKWF1EPOJLzAm-1" vertex="1">
          <mxGeometry y="26" width="160" height="54" as="geometry" />
        </mxCell>
        <mxCell id="K2ils4JtKWF1EPOJLzAm-3" value="" style="line;strokeWidth=1;fillColor=none;align=left;verticalAlign=middle;spacingTop=-1;spacingLeft=3;spacingRight=3;rotatable=0;labelPosition=right;points=[];portConstraint=eastwest;strokeColor=inherit;" parent="K2ils4JtKWF1EPOJLzAm-1" vertex="1">
          <mxGeometry y="80" width="160" height="8" as="geometry" />
        </mxCell>
        <mxCell id="K2ils4JtKWF1EPOJLzAm-4" value="+ calcularMulta()" style="text;strokeColor=none;fillColor=none;align=left;verticalAlign=top;spacingLeft=4;spacingRight=4;overflow=hidden;rotatable=0;points=[[0,0.5],[1,0.5]];portConstraint=eastwest;whiteSpace=wrap;html=1;" parent="K2ils4JtKWF1EPOJLzAm-1" vertex="1">
          <mxGeometry y="88" width="160" height="26" as="geometry" />
        </mxCell>
        <mxCell id="K2ils4JtKWF1EPOJLzAm-5" value="Bbliotecário" style="swimlane;fontStyle=1;align=center;verticalAlign=top;childLayout=stackLayout;horizontal=1;startSize=26;horizontalStack=0;resizeParent=1;resizeParentMax=0;resizeLast=0;collapsible=1;marginBottom=0;whiteSpace=wrap;html=1;" parent="1" vertex="1">
          <mxGeometry x="450" y="160" width="160" height="114" as="geometry" />
        </mxCell>
        <mxCell id="K2ils4JtKWF1EPOJLzAm-6" value="+ username&lt;br&gt;+ senha&lt;br&gt;+R.A" style="text;strokeColor=none;fillColor=none;align=left;verticalAlign=top;spacingLeft=4;spacingRight=4;overflow=hidden;rotatable=0;points=[[0,0.5],[1,0.5]];portConstraint=eastwest;whiteSpace=wrap;html=1;" parent="K2ils4JtKWF1EPOJLzAm-5" vertex="1">
          <mxGeometry y="26" width="160" height="54" as="geometry" />
        </mxCell>
        <mxCell id="K2ils4JtKWF1EPOJLzAm-7" value="" style="line;strokeWidth=1;fillColor=none;align=left;verticalAlign=middle;spacingTop=-1;spacingLeft=3;spacingRight=3;rotatable=0;labelPosition=right;points=[];portConstraint=eastwest;strokeColor=inherit;" parent="K2ils4JtKWF1EPOJLzAm-5" vertex="1">
          <mxGeometry y="80" width="160" height="8" as="geometry" />
        </mxCell>
        <mxCell id="K2ils4JtKWF1EPOJLzAm-8" value="+ reservarItem()" style="text;strokeColor=none;fillColor=none;align=left;verticalAlign=top;spacingLeft=4;spacingRight=4;overflow=hidden;rotatable=0;points=[[0,0.5],[1,0.5]];portConstraint=eastwest;whiteSpace=wrap;html=1;" parent="K2ils4JtKWF1EPOJLzAm-5" vertex="1">
          <mxGeometry y="88" width="160" height="26" as="geometry" />
        </mxCell>
        <mxCell id="K2ils4JtKWF1EPOJLzAm-17" value="Acervo" style="swimlane;fontStyle=1;align=center;verticalAlign=top;childLayout=stackLayout;horizontal=1;startSize=26;horizontalStack=0;resizeParent=1;resizeParentMax=0;resizeLast=0;collapsible=1;marginBottom=0;whiteSpace=wrap;html=1;" parent="1" vertex="1">
          <mxGeometry x="450" y="410" width="160" height="124" as="geometry" />
        </mxCell>
        <mxCell id="K2ils4JtKWF1EPOJLzAm-18" value="+ quantidade&lt;br&gt;+ título&lt;br&gt;+ valorMultaDiária" style="text;strokeColor=none;fillColor=none;align=left;verticalAlign=top;spacingLeft=4;spacingRight=4;overflow=hidden;rotatable=0;points=[[0,0.5],[1,0.5]];portConstraint=eastwest;whiteSpace=wrap;html=1;" parent="K2ils4JtKWF1EPOJLzAm-17" vertex="1">
          <mxGeometry y="26" width="160" height="64" as="geometry" />
        </mxCell>
        <mxCell id="K2ils4JtKWF1EPOJLzAm-19" value="" style="line;strokeWidth=1;fillColor=none;align=left;verticalAlign=middle;spacingTop=-1;spacingLeft=3;spacingRight=3;rotatable=0;labelPosition=right;points=[];portConstraint=eastwest;strokeColor=inherit;" parent="K2ils4JtKWF1EPOJLzAm-17" vertex="1">
          <mxGeometry y="90" width="160" height="8" as="geometry" />
        </mxCell>
        <mxCell id="K2ils4JtKWF1EPOJLzAm-20" value="+ reservarCliente()" style="text;strokeColor=none;fillColor=none;align=left;verticalAlign=top;spacingLeft=4;spacingRight=4;overflow=hidden;rotatable=0;points=[[0,0.5],[1,0.5]];portConstraint=eastwest;whiteSpace=wrap;html=1;" parent="K2ils4JtKWF1EPOJLzAm-17" vertex="1">
          <mxGeometry y="98" width="160" height="26" as="geometry" />
        </mxCell>
        <mxCell id="K2ils4JtKWF1EPOJLzAm-21" value="Reserva" style="swimlane;fontStyle=0;childLayout=stackLayout;horizontal=1;startSize=26;fillColor=none;horizontalStack=0;resizeParent=1;resizeParentMax=0;resizeLast=0;collapsible=1;marginBottom=0;whiteSpace=wrap;html=1;" parent="1" vertex="1">
          <mxGeometry x="620" y="320" width="140" height="52" as="geometry" />
        </mxCell>
        <mxCell id="K2ils4JtKWF1EPOJLzAm-22" value="+ dados" style="text;strokeColor=none;fillColor=none;align=left;verticalAlign=top;spacingLeft=4;spacingRight=4;overflow=hidden;rotatable=0;points=[[0,0.5],[1,0.5]];portConstraint=eastwest;whiteSpace=wrap;html=1;" parent="K2ils4JtKWF1EPOJLzAm-21" vertex="1">
          <mxGeometry y="26" width="140" height="26" as="geometry" />
        </mxCell>
        <mxCell id="K2ils4JtKWF1EPOJLzAm-45" style="edgeStyle=orthogonalEdgeStyle;rounded=0;orthogonalLoop=1;jettySize=auto;html=1;exitX=0.5;exitY=0;exitDx=0;exitDy=0;" parent="1" source="K2ils4JtKWF1EPOJLzAm-25" target="K2ils4JtKWF1EPOJLzAm-20" edge="1">
          <mxGeometry relative="1" as="geometry" />
        </mxCell>
        <mxCell id="K2ils4JtKWF1EPOJLzAm-25" value="Livro" style="swimlane;fontStyle=0;childLayout=stackLayout;horizontal=1;startSize=26;fillColor=none;horizontalStack=0;resizeParent=1;resizeParentMax=0;resizeLast=0;collapsible=1;marginBottom=0;whiteSpace=wrap;html=1;" parent="1" vertex="1">
          <mxGeometry x="180" y="550" width="140" height="80" as="geometry" />
        </mxCell>
        <mxCell id="K2ils4JtKWF1EPOJLzAm-26" value="+ numDePaginas&lt;br&gt;+ gênero&lt;div&gt;+ empréstimo&lt;br&gt;&lt;div&gt;&lt;br&gt;&lt;/div&gt;&lt;/div&gt;" style="text;strokeColor=none;fillColor=none;align=left;verticalAlign=top;spacingLeft=4;spacingRight=4;overflow=hidden;rotatable=0;points=[[0,0.5],[1,0.5]];portConstraint=eastwest;whiteSpace=wrap;html=1;" parent="K2ils4JtKWF1EPOJLzAm-25" vertex="1">
          <mxGeometry y="26" width="140" height="54" as="geometry" />
        </mxCell>
        <mxCell id="K2ils4JtKWF1EPOJLzAm-29" style="edgeStyle=orthogonalEdgeStyle;rounded=0;orthogonalLoop=1;jettySize=auto;html=1;exitX=0.5;exitY=0;exitDx=0;exitDy=0;entryX=-0.007;entryY=0.269;entryDx=0;entryDy=0;entryPerimeter=0;" parent="1" source="K2ils4JtKWF1EPOJLzAm-17" target="K2ils4JtKWF1EPOJLzAm-22" edge="1">
          <mxGeometry relative="1" as="geometry">
            <Array as="points">
              <mxPoint x="530" y="353" />
            </Array>
          </mxGeometry>
        </mxCell>
        <mxCell id="K2ils4JtKWF1EPOJLzAm-30" value="0..+" style="text;html=1;align=center;verticalAlign=middle;whiteSpace=wrap;rounded=0;" parent="1" vertex="1">
          <mxGeometry x="560" y="350" width="60" height="30" as="geometry" />
        </mxCell>
        <mxCell id="K2ils4JtKWF1EPOJLzAm-31" value="" style="endArrow=classic;html=1;rounded=0;exitX=0.481;exitY=1.077;exitDx=0;exitDy=0;exitPerimeter=0;entryX=-0.043;entryY=0.288;entryDx=0;entryDy=0;entryPerimeter=0;" parent="1" source="K2ils4JtKWF1EPOJLzAm-8" target="K2ils4JtKWF1EPOJLzAm-21" edge="1">
          <mxGeometry width="50" height="50" relative="1" as="geometry">
            <mxPoint x="400" y="420" as="sourcePoint" />
            <mxPoint x="450" y="370" as="targetPoint" />
            <Array as="points">
              <mxPoint x="527" y="335" />
            </Array>
          </mxGeometry>
        </mxCell>
        <mxCell id="K2ils4JtKWF1EPOJLzAm-32" value="0..+" style="text;html=1;align=center;verticalAlign=middle;whiteSpace=wrap;rounded=0;" parent="1" vertex="1">
          <mxGeometry x="560" y="310" width="60" height="30" as="geometry" />
        </mxCell>
        <mxCell id="K2ils4JtKWF1EPOJLzAm-33" value="1" style="text;html=1;align=center;verticalAlign=middle;whiteSpace=wrap;rounded=0;" parent="1" vertex="1">
          <mxGeometry x="490" y="380" width="60" height="30" as="geometry" />
        </mxCell>
        <mxCell id="K2ils4JtKWF1EPOJLzAm-35" value="1" style="text;html=1;align=center;verticalAlign=middle;whiteSpace=wrap;rounded=0;" parent="1" vertex="1">
          <mxGeometry x="480" y="274" width="60" height="30" as="geometry" />
        </mxCell>
        <mxCell id="K2ils4JtKWF1EPOJLzAm-37" value="&lt;br&gt;&amp;lt;&amp;lt;Use&amp;gt;&amp;gt;&lt;br&gt;Reserva" style="endArrow=open;endSize=12;dashed=1;html=1;rounded=0;exitX=0;exitY=0;exitDx=0;exitDy=0;entryX=0.206;entryY=-0.032;entryDx=0;entryDy=0;entryPerimeter=0;" parent="1" source="K2ils4JtKWF1EPOJLzAm-35" target="K2ils4JtKWF1EPOJLzAm-17" edge="1">
          <mxGeometry x="-0.1521" y="-1" width="160" relative="1" as="geometry">
            <mxPoint x="210" y="390" as="sourcePoint" />
            <mxPoint x="370" y="390" as="targetPoint" />
            <mxPoint as="offset" />
          </mxGeometry>
        </mxCell>
        <mxCell id="K2ils4JtKWF1EPOJLzAm-38" style="edgeStyle=orthogonalEdgeStyle;rounded=0;orthogonalLoop=1;jettySize=auto;html=1;exitX=0;exitY=0.5;exitDx=0;exitDy=0;entryX=0.481;entryY=1;entryDx=0;entryDy=0;entryPerimeter=0;" parent="1" source="K2ils4JtKWF1EPOJLzAm-18" target="K2ils4JtKWF1EPOJLzAm-4" edge="1">
          <mxGeometry relative="1" as="geometry" />
        </mxCell>
        <mxCell id="K2ils4JtKWF1EPOJLzAm-39" value="0..+" style="text;html=1;align=center;verticalAlign=middle;whiteSpace=wrap;rounded=0;" parent="1" vertex="1">
          <mxGeometry x="180" y="264" width="60" height="30" as="geometry" />
        </mxCell>
        <mxCell id="K2ils4JtKWF1EPOJLzAm-40" value="1" style="text;html=1;align=center;verticalAlign=middle;whiteSpace=wrap;rounded=0;" parent="1" vertex="1">
          <mxGeometry x="410" y="440" width="60" height="30" as="geometry" />
        </mxCell>
        <mxCell id="K2ils4JtKWF1EPOJLzAm-41" style="edgeStyle=orthogonalEdgeStyle;rounded=0;orthogonalLoop=1;jettySize=auto;html=1;exitX=0;exitY=0.5;exitDx=0;exitDy=0;entryX=1.013;entryY=0.685;entryDx=0;entryDy=0;entryPerimeter=0;" parent="1" source="K2ils4JtKWF1EPOJLzAm-6" target="K2ils4JtKWF1EPOJLzAm-2" edge="1">
          <mxGeometry relative="1" as="geometry" />
        </mxCell>
        <mxCell id="K2ils4JtKWF1EPOJLzAm-42" value="1" style="text;html=1;align=center;verticalAlign=middle;whiteSpace=wrap;rounded=0;" parent="1" vertex="1">
          <mxGeometry x="400" y="210" width="60" height="30" as="geometry" />
        </mxCell>
        <mxCell id="K2ils4JtKWF1EPOJLzAm-43" value="0..+" style="text;html=1;align=center;verticalAlign=middle;whiteSpace=wrap;rounded=0;" parent="1" vertex="1">
          <mxGeometry x="270" y="180" width="60" height="30" as="geometry" />
        </mxCell>
        <mxCell id="K2ils4JtKWF1EPOJLzAm-46" value="Autor" style="swimlane;fontStyle=0;childLayout=stackLayout;horizontal=1;startSize=26;fillColor=none;horizontalStack=0;resizeParent=1;resizeParentMax=0;resizeLast=0;collapsible=1;marginBottom=0;whiteSpace=wrap;html=1;" parent="1" vertex="1">
          <mxGeometry x="180" y="690" width="140" height="70" as="geometry" />
        </mxCell>
        <mxCell id="K2ils4JtKWF1EPOJLzAm-47" value="+ nome&lt;br&gt;+ sobrenome" style="text;strokeColor=none;fillColor=none;align=left;verticalAlign=top;spacingLeft=4;spacingRight=4;overflow=hidden;rotatable=0;points=[[0,0.5],[1,0.5]];portConstraint=eastwest;whiteSpace=wrap;html=1;" parent="K2ils4JtKWF1EPOJLzAm-46" vertex="1">
          <mxGeometry y="26" width="140" height="44" as="geometry" />
        </mxCell>
        <mxCell id="K2ils4JtKWF1EPOJLzAm-50" value="Editora" style="swimlane;fontStyle=0;childLayout=stackLayout;horizontal=1;startSize=26;fillColor=none;horizontalStack=0;resizeParent=1;resizeParentMax=0;resizeLast=0;collapsible=1;marginBottom=0;whiteSpace=wrap;html=1;" parent="1" vertex="1">
          <mxGeometry x="450" y="569" width="140" height="52" as="geometry" />
        </mxCell>
        <mxCell id="K2ils4JtKWF1EPOJLzAm-51" value="+ nome_da_mpresa" style="text;strokeColor=none;fillColor=none;align=left;verticalAlign=top;spacingLeft=4;spacingRight=4;overflow=hidden;rotatable=0;points=[[0,0.5],[1,0.5]];portConstraint=eastwest;whiteSpace=wrap;html=1;" parent="K2ils4JtKWF1EPOJLzAm-50" vertex="1">
          <mxGeometry y="26" width="140" height="26" as="geometry" />
        </mxCell>
        <mxCell id="K2ils4JtKWF1EPOJLzAm-60" style="edgeStyle=orthogonalEdgeStyle;rounded=0;orthogonalLoop=1;jettySize=auto;html=1;exitX=0;exitY=0.5;exitDx=0;exitDy=0;entryX=1.021;entryY=0.727;entryDx=0;entryDy=0;entryPerimeter=0;" parent="1" source="K2ils4JtKWF1EPOJLzAm-51" target="K2ils4JtKWF1EPOJLzAm-26" edge="1">
          <mxGeometry relative="1" as="geometry" />
        </mxCell>
        <mxCell id="K2ils4JtKWF1EPOJLzAm-61" value="" style="endArrow=none;startArrow=none;endFill=0;startFill=0;endSize=8;html=1;verticalAlign=bottom;labelBackgroundColor=none;strokeWidth=3;rounded=0;entryX=0.5;entryY=0;entryDx=0;entryDy=0;" parent="1" source="K2ils4JtKWF1EPOJLzAm-26" target="K2ils4JtKWF1EPOJLzAm-46" edge="1">
          <mxGeometry width="160" relative="1" as="geometry">
            <mxPoint x="250" y="640" as="sourcePoint" />
            <mxPoint x="390" y="380" as="targetPoint" />
          </mxGeometry>
        </mxCell>
        <mxCell id="K2ils4JtKWF1EPOJLzAm-66" value="0..+" style="text;html=1;align=center;verticalAlign=middle;whiteSpace=wrap;rounded=0;" parent="1" vertex="1">
          <mxGeometry x="240" y="621" width="60" height="30" as="geometry" />
        </mxCell>
        <mxCell id="K2ils4JtKWF1EPOJLzAm-67" value="1..+" style="text;html=1;align=center;verticalAlign=middle;whiteSpace=wrap;rounded=0;" parent="1" vertex="1">
          <mxGeometry x="240" y="660" width="60" height="30" as="geometry" />
        </mxCell>
        <mxCell id="z0xEunbuPHtqpMZgFBuZ-7" style="edgeStyle=orthogonalEdgeStyle;rounded=0;orthogonalLoop=1;jettySize=auto;html=1;exitX=0.75;exitY=0;exitDx=0;exitDy=0;entryX=0;entryY=0.5;entryDx=0;entryDy=0;" edge="1" parent="1" source="z0xEunbuPHtqpMZgFBuZ-1" target="K2ils4JtKWF1EPOJLzAm-4">
          <mxGeometry relative="1" as="geometry">
            <Array as="points">
              <mxPoint x="100" y="350" />
              <mxPoint x="100" y="251" />
            </Array>
          </mxGeometry>
        </mxCell>
        <mxCell id="z0xEunbuPHtqpMZgFBuZ-1" value="Aluno&lt;div&gt;&lt;br&gt;&lt;/div&gt;" style="swimlane;fontStyle=1;align=center;verticalAlign=top;childLayout=stackLayout;horizontal=1;startSize=20;horizontalStack=0;resizeParent=1;resizeParentMax=0;resizeLast=0;collapsible=1;marginBottom=0;whiteSpace=wrap;html=1;" vertex="1" parent="1">
          <mxGeometry x="10" y="350" width="160" height="170" as="geometry" />
        </mxCell>
        <mxCell id="z0xEunbuPHtqpMZgFBuZ-2" value="+ RA&lt;br&gt;+ senha&lt;br&gt;+ livros_emprestados" style="text;strokeColor=none;fillColor=none;align=left;verticalAlign=top;spacingLeft=4;spacingRight=4;overflow=hidden;rotatable=0;points=[[0,0.5],[1,0.5]];portConstraint=eastwest;whiteSpace=wrap;html=1;" vertex="1" parent="z0xEunbuPHtqpMZgFBuZ-1">
          <mxGeometry y="20" width="160" height="64" as="geometry" />
        </mxCell>
        <mxCell id="z0xEunbuPHtqpMZgFBuZ-3" value="" style="line;strokeWidth=1;fillColor=none;align=left;verticalAlign=middle;spacingTop=-1;spacingLeft=3;spacingRight=3;rotatable=0;labelPosition=right;points=[];portConstraint=eastwest;strokeColor=inherit;" vertex="1" parent="z0xEunbuPHtqpMZgFBuZ-1">
          <mxGeometry y="84" width="160" height="8" as="geometry" />
        </mxCell>
        <mxCell id="z0xEunbuPHtqpMZgFBuZ-4" value="+ reservaLivro ()&lt;div&gt;+ pagarMulta ()&lt;/div&gt;&lt;div&gt;+ pegarLivro ()&lt;/div&gt;&lt;div&gt;+ develverLivro ()&lt;/div&gt;" style="text;strokeColor=none;fillColor=none;align=left;verticalAlign=top;spacingLeft=4;spacingRight=4;overflow=hidden;rotatable=0;points=[[0,0.5],[1,0.5]];portConstraint=eastwest;whiteSpace=wrap;html=1;" vertex="1" parent="z0xEunbuPHtqpMZgFBuZ-1">
          <mxGeometry y="92" width="160" height="78" as="geometry" />
        </mxCell>
        <mxCell id="z0xEunbuPHtqpMZgFBuZ-6" style="edgeStyle=orthogonalEdgeStyle;rounded=0;orthogonalLoop=1;jettySize=auto;html=1;exitX=0;exitY=0.5;exitDx=0;exitDy=0;entryX=0.313;entryY=1.038;entryDx=0;entryDy=0;entryPerimeter=0;" edge="1" parent="1" source="K2ils4JtKWF1EPOJLzAm-26" target="z0xEunbuPHtqpMZgFBuZ-4">
          <mxGeometry relative="1" as="geometry">
            <mxPoint x="-90" y="659.5" as="sourcePoint" />
            <mxPoint x="60" y="540" as="targetPoint" />
            <Array as="points">
              <mxPoint x="180" y="610" />
              <mxPoint x="60" y="610" />
            </Array>
          </mxGeometry>
        </mxCell>
      </root>
    </mxGraphModel>
  </diagram>
</mxfile>
